<svg width="406" height="306" viewBox="0 0 406 306" fill="none" xmlns="http://www.w3.org/2000/svg">
<path d="M194.677 283.032C266.598 283.032 324.901 277.747 324.901 271.227C324.901 264.708 266.598 259.423 194.677 259.423C122.756 259.423 64.4524 264.708 64.4524 271.227C64.4524 277.747 122.756 283.032 194.677 283.032Z" fill="white"/>
<path d="M155.762 262.62C155.762 262.62 158.086 265.665 156.574 268.517C155.062 271.369 157.264 273.815 159.528 271.806C161.791 269.796 162.694 261.443 162.694 261.443L157.548 258.469L155.762 262.62Z" fill="#5381FF"/>
<path d="M174.925 222.02C174.925 222.02 173.91 225.704 176.478 227.765C179.046 229.825 177.909 232.911 175.037 231.947C172.164 230.982 168.084 223.644 168.084 223.644L171.657 218.904L174.925 222.02Z" fill="#5381FF"/>
<path d="M215.779 272.526L210.948 268.933L232.029 240.564V191.702H238.048V242.553L215.779 272.526Z" fill="#A5A5A5"/>
<path d="M236.254 238.103L231.382 241.62L253.681 272.505L258.553 268.987L236.254 238.103Z" fill="#A5A5A5"/>
<path opacity="0.58" d="M278.77 258.915C278.77 258.915 271.34 256.885 269.726 249.973C269.726 249.973 281.236 247.649 281.561 259.524L278.77 258.915Z" fill="#94AFF9"/>
<path opacity="0.73" d="M279.683 258.174C279.683 258.174 274.487 249.973 279.054 242.3C279.054 242.3 287.803 247.862 283.916 258.195L279.683 258.174Z" fill="#7D9FFB"/>
<path d="M281.013 258.184C281.013 258.184 283.764 249.516 292.046 247.882C292.046 247.882 293.599 253.505 286.677 258.205L281.013 258.184Z" fill="#5381FF"/>
<path d="M275.633 257.992L277.136 268.284L286.616 268.324L288.016 258.042L275.633 257.992Z" fill="#24285B"/>
<path d="M287.012 46.5164H183.065V193.519H287.012V46.5164Z" fill="#E6E6E6"/>
<path d="M287.012 184.83H183.065V204.582H287.012V184.83Z" fill="#C9C9C9"/>
<path opacity="0.39" d="M259.059 143.895H211.019V154.035H259.059V143.895Z" fill="#A5A5A5"/>
<path opacity="0.13" d="M259.059 160.633H211.019V170.773H259.059V160.633Z" fill="#A5A5A5"/>
<path d="M315.442 30.256H260.591V65.2126H315.442V30.256Z" fill="#FFCF33"/>
<path d="M278.851 50.6981H271.411V58.1381H278.851V50.6981Z" fill="#24285B"/>
<path d="M134.995 80.529C134.995 80.529 170.997 78.022 168.084 121.535C165.171 165.048 214.165 162.622 214.165 162.622V172.671C214.165 172.671 147.175 181.471 141.085 143.895C134.995 106.32 134.995 80.529 134.995 80.529Z" fill="white"/>
<path opacity="0.08" d="M224.498 169.413C224.498 169.413 228.375 180.405 214.165 181.927C199.955 183.45 211.12 193.488 201.224 204.582H184.223L181.685 168.357L224.498 169.413Z" fill="black"/>
<path opacity="0.46" d="M135 81.0268C135 81.0268 171.002 78.5197 168.089 122.033C165.176 165.546 214.17 163.12 214.17 163.12V173.168C214.17 173.168 147.18 181.969 141.09 144.393C135 106.818 135 81.0268 135 81.0268Z" fill="#5381FF"/>
<path d="M291.386 42.7101H283.946V58.1482H291.386V42.7101Z" fill="#24285B"/>
<path d="M304.622 37.3306H297.182V58.1381H304.622V37.3306Z" fill="#24285B"/>
<path d="M235.044 127.99C250.459 127.99 262.956 115.494 262.956 100.078C262.956 84.6623 250.459 72.1654 235.044 72.1654C219.628 72.1654 207.131 84.6623 207.131 100.078C207.131 115.494 219.628 127.99 235.044 127.99Z" fill="white"/>
<path d="M235.043 72.1654V100.078L262.367 94.3939C262.367 94.3939 258.561 71.9827 235.043 72.1654Z" fill="#FFCF33"/>
<path d="M235.044 100.078L219.524 123.281C219.524 123.281 235.165 135.187 253.283 121.19C253.283 121.19 265.686 112.207 262.418 94.3939L235.044 100.078Z" fill="#24285B"/>
<path d="M110.787 58.2091C110.787 58.2091 112.107 63.7916 111.711 67.6892C111.67 68.0659 111.556 68.4308 111.374 68.7632C111.193 69.0957 110.948 69.389 110.652 69.6266C110.357 69.8641 110.018 70.0412 109.655 70.1477C109.291 70.2541 108.91 70.2879 108.534 70.247C107.306 70.186 106.122 69.7699 105.125 69.0493C104.129 68.3286 103.363 67.3343 102.921 66.187L100.485 61.5282C100.101 60.5352 100.034 59.4474 100.294 58.4148C100.554 57.3822 101.128 56.4557 101.936 55.763C104.809 52.992 110.158 54.7683 110.787 58.2091Z" fill="#F4A28C"/>
<path d="M100.972 64.4413L102.738 83.1376L112.969 81.4324L107.58 68.5114L100.972 64.4413Z" fill="#F4A28C"/>
<path d="M100.414 66.0348C100.431 66.1531 100.488 66.2623 100.574 66.345C100.66 66.4277 100.772 66.4793 100.891 66.4915C101.716 66.6 102.553 66.4355 103.275 66.0231C103.997 65.6107 104.565 64.9731 104.89 64.2078C105.286 63.3621 105.424 62.4189 105.289 61.4952C105.154 60.5714 104.75 59.7077 104.129 59.011C105.901 59.0833 107.676 58.9471 109.417 58.605C110.006 58.5037 110.572 58.3011 111.092 58.0061L111.934 53.5401C111.934 53.5401 113.65 48.9422 111 48.3839C108.351 47.8257 107.59 50.8504 105.266 49.0741C102.941 47.2979 102.373 46.5874 100.414 48.0591C98.455 49.5309 101.094 50.8098 97.643 51.2767C94.192 51.7436 94.3239 53.1747 94.5066 54.748C94.6674 55.2747 94.982 55.7413 95.41 56.0878C98.1111 58.7741 99.8671 62.2647 100.414 66.0348V66.0348Z" fill="#24285B"/>
<path d="M105.479 63.9439C105.479 63.9439 105.113 61.7718 103.449 62.1778C101.784 62.5838 102.383 65.71 104.657 65.71L105.479 63.9439Z" fill="#F4A28C"/>
<path d="M111.437 61.7617L113.345 63.68C113.453 63.7908 113.53 63.9271 113.571 64.0761C113.611 64.2251 113.613 64.3819 113.577 64.532C113.54 64.682 113.467 64.8203 113.362 64.934C113.258 65.0478 113.126 65.1331 112.98 65.1822L110.868 65.913L111.437 61.7617Z" fill="#F4A28C"/>
<path opacity="0.31" d="M108.27 70.2471C108.27 70.2471 106.951 70.4805 104.007 69.2321C104.007 69.2321 104.941 72.8658 109.884 74.0127L108.27 70.2471Z" fill="#CE8172"/>
<path d="M70.8775 122.763C65.4371 107.457 63.4376 100.078 89.0156 85.3807C101.196 78.3772 120.399 77.3317 139.167 81.3207C176.417 89.2681 145.257 137.684 154.737 163.881L112.482 179.715C112.482 179.715 82.7429 156.045 70.8775 122.763Z" fill="#5381FF"/>
<path d="M112.482 179.725C112.482 179.725 128.235 243.305 153.945 263.158L161.385 259.413C161.385 259.413 133.442 215.25 143.998 193.042C145.426 189.925 146.693 186.737 147.794 183.491L154.737 163.891L112.482 179.725Z" fill="#24285B"/>
<path opacity="0.08" d="M100.15 101.468C100.15 101.468 111.315 111.994 104.352 129.574C99.5411 141.662 110.046 154.492 122.622 151.295C122.998 151.193 123.394 151.092 123.789 150.97C142.313 145.387 152.808 150.797 152.808 150.797C152.808 150.797 153.113 161.851 154.696 163.891L112.442 179.725L111.427 179.075L96.8311 164.561C96.8311 164.561 86.0619 152.137 81.2001 143.784C76.3382 135.43 100.15 101.468 100.15 101.468Z" fill="black"/>
<path d="M154.737 163.891C154.737 163.891 205.548 165.231 192.342 194.706C187.916 204.646 182.589 214.159 176.427 223.126L168.155 220.152C168.155 220.152 197.59 165.748 133.645 193.062L154.737 163.891Z" fill="#24285B"/>
<path d="M99.1047 99.9865C91.9997 90.9632 78.3784 90.75 70.5223 99.1136C57.3273 113.121 40.5087 140.17 59.946 174.934C80.0024 210.804 133.645 163.891 133.645 163.891L128.398 153C128.398 153 76.1251 180.405 78.6626 153C80.723 130.731 111.731 116.034 99.1047 99.9865Z" fill="white"/>
<path opacity="0.46" d="M98.9907 99.9629C91.8857 90.9396 78.2644 90.7264 70.4083 99.09C57.2133 113.097 40.3947 140.147 59.832 174.911C79.8884 210.781 133.531 163.867 133.531 163.867L128.284 152.976C128.284 152.976 76.0111 180.381 78.5486 152.976C80.609 130.707 111.617 116.01 98.9907 99.9629Z" fill="#A2BBFF"/>
<path d="M130.021 156.38L143.369 150.97C143.369 150.97 150.047 160.105 133.645 163.891L130.021 156.38Z" fill="#F4A28C"/>
<path d="M157.833 149.569L155.772 118.023L117.831 127.32L120.856 153.903L103.53 158.41L104.555 162.622L157.833 149.569Z" fill="#FFCF33"/>
<path d="M138.872 141.439C141.031 141.439 142.78 139.69 142.78 137.531C142.78 135.373 141.031 133.624 138.872 133.624C136.714 133.624 134.965 135.373 134.965 137.531C134.965 139.69 136.714 141.439 138.872 141.439Z" fill="white"/>
<path d="M214.165 165.708C214.165 165.708 220.62 163.678 224.498 167.21C228.375 170.742 214.165 171.605 214.165 171.605V165.708Z" fill="#F4A28C"/>
<path d="M92.3651 83.6755C92.3651 83.6755 91.5328 77.3825 103.997 75.86C116.461 74.3375 122.267 72.1451 123.81 79.1994C123.83 79.1994 118.532 89.461 92.3651 83.6755Z" fill="white"/>
<path opacity="0.46" d="M92.3651 83.6755C92.3651 83.6755 91.5328 77.3825 103.997 75.86C116.461 74.3375 122.267 72.1451 123.81 79.1994C123.83 79.1994 118.532 89.461 92.3651 83.6755Z" fill="#A2BBFF"/>
</svg>
