<svg width="32" height="32" viewBox="0 0 32 32" fill="none" xmlns="http://www.w3.org/2000/svg">
<path d="M5.33341 28H6.66675V10.6667H5.33341C4.62617 10.6667 3.94789 10.9476 3.4478 11.4477C2.9477 11.9478 2.66675 12.6261 2.66675 13.3333V25.3333C2.66675 26.0406 2.9477 26.7189 3.4478 27.219C3.94789 27.7191 4.62617 28 5.33341 28ZM26.6667 10.6667H17.3334L18.8294 6.17601C18.9629 5.77522 18.9993 5.34847 18.9355 4.93088C18.8718 4.51329 18.7097 4.11682 18.4627 3.77413C18.2157 3.43144 17.8909 3.15233 17.5149 2.95979C17.1389 2.76724 16.7225 2.66678 16.3001 2.66667H16.0001L9.33341 9.91734V28H24.0001L29.2161 16.5387L29.3334 16V13.3333C29.3334 12.6261 29.0525 11.9478 28.5524 11.4477C28.0523 10.9476 27.374 10.6667 26.6667 10.6667V10.6667Z" fill="#455A64"/>
</svg>
