<svg width="32" height="32" viewBox="0 0 32 32" fill="none" xmlns="http://www.w3.org/2000/svg">
<g clip-path="url(#clip0_1234_2027)">
<path d="M4 0C2.93913 0 1.92172 0.421427 1.17157 1.17157C0.421427 1.92172 0 2.93913 0 4L0 28C0 29.0609 0.421427 30.0783 1.17157 30.8284C1.92172 31.5786 2.93913 32 4 32H28C29.0609 32 30.0783 31.5786 30.8284 30.8284C31.5786 30.0783 32 29.0609 32 28V4C32 2.93913 31.5786 1.92172 30.8284 1.17157C30.0783 0.421427 29.0609 0 28 0L4 0ZM10.992 12.066C10.9275 12.0669 10.8636 12.0546 10.804 12.0299C10.7444 12.0052 10.6906 11.9686 10.6456 11.9224C10.6007 11.8761 10.5657 11.8212 10.5427 11.761C10.5197 11.7007 10.5093 11.6364 10.512 11.572C10.7 8.182 13.474 7 16.01 7C18.802 7 21.354 8.46 21.354 11.48C21.354 13.64 20.084 14.668 18.866 15.594C17.392 16.712 16.846 17.13 16.846 18.566V18.776C16.846 18.9086 16.7933 19.0358 16.6996 19.1296C16.6058 19.2233 16.4786 19.276 16.346 19.276H14.726C14.5948 19.276 14.4688 19.2244 14.3752 19.1324C14.2817 19.0403 14.2281 18.9152 14.226 18.784L14.218 18.35C14.142 16.496 15.208 15.354 16.554 14.376C17.734 13.488 18.484 12.904 18.484 11.634C18.484 9.984 17.228 9.298 15.856 9.298C14.25 9.298 13.35 10.254 13.172 11.566C13.136 11.84 12.916 12.066 12.64 12.066H10.99H10.992ZM15.642 24.952C14.474 24.952 13.624 24.164 13.624 23.098C13.624 21.994 14.474 21.218 15.644 21.218C16.862 21.218 17.7 21.994 17.7 23.098C17.7 24.164 16.86 24.952 15.642 24.952V24.952Z" fill="#455A64"/>
</g>
<defs>
<clipPath id="clip0_1234_2027">
<rect width="32" height="32" fill="white"/>
</clipPath>
</defs>
</svg>
