<svg width="32" height="32" viewBox="0 0 32 32" fill="none" xmlns="http://www.w3.org/2000/svg">
<path d="M18.4266 29.3333H13.5733C13.2692 29.3334 12.9742 29.2295 12.7373 29.0389C12.5003 28.8483 12.3357 28.5824 12.2706 28.2853L11.7279 25.7733C11.004 25.4561 10.3176 25.0595 9.68126 24.5907L7.23193 25.3707C6.94201 25.4631 6.62919 25.4536 6.34542 25.3438C6.06165 25.2339 5.824 25.0303 5.67193 24.7667L3.23993 20.5653C3.08945 20.3015 3.03297 19.9944 3.07972 19.6943C3.12646 19.3942 3.27367 19.1189 3.49726 18.9133L5.39726 17.18C5.31086 16.3948 5.31086 15.6025 5.39726 14.8173L3.49726 13.088C3.27336 12.8824 3.12595 12.6068 3.07919 12.3064C3.03244 12.006 3.08911 11.6986 3.23993 11.4347L5.66659 7.23067C5.81866 6.96709 6.05631 6.76346 6.34009 6.65359C6.62386 6.54372 6.93668 6.53422 7.22659 6.62667L9.67593 7.40667C10.0013 7.16667 10.3399 6.94267 10.6893 6.74C11.0266 6.55067 11.3733 6.37867 11.7279 6.22534L12.2719 3.71601C12.3367 3.41894 12.501 3.15292 12.7377 2.96207C12.9744 2.77122 13.2692 2.66699 13.5733 2.66667H18.4266C18.7306 2.66699 19.0254 2.77122 19.2621 2.96207C19.4988 3.15292 19.6632 3.41894 19.7279 3.71601L20.2773 6.22667C21.0003 6.5457 21.6865 6.94224 22.3239 7.40934L24.7746 6.62934C25.0643 6.53723 25.3768 6.5469 25.6603 6.65675C25.9438 6.76661 26.1812 6.97004 26.3333 7.23334L28.7599 11.4373C29.0693 11.98 28.9626 12.6667 28.5026 13.0893L26.6026 14.8227C26.689 15.6079 26.689 16.4002 26.6026 17.1853L28.5026 18.9187C28.9626 19.3427 29.0693 20.028 28.7599 20.5707L26.3333 24.7747C26.1812 25.0383 25.9435 25.2419 25.6598 25.3518C25.376 25.4616 25.0632 25.4711 24.7733 25.3787L22.3239 24.5987C21.6881 25.0671 21.0021 25.4634 20.2786 25.78L19.7279 28.2853C19.6629 28.5822 19.4984 28.8479 19.2618 29.0385C19.0251 29.229 18.7305 29.3331 18.4266 29.3333V29.3333ZM15.9946 10.6667C14.5801 10.6667 13.2236 11.2286 12.2234 12.2288C11.2232 13.229 10.6613 14.5855 10.6613 16C10.6613 17.4145 11.2232 18.771 12.2234 19.7712C13.2236 20.7714 14.5801 21.3333 15.9946 21.3333C17.4091 21.3333 18.7656 20.7714 19.7658 19.7712C20.766 18.771 21.3279 17.4145 21.3279 16C21.3279 14.5855 20.766 13.229 19.7658 12.2288C18.7656 11.2286 17.4091 10.6667 15.9946 10.6667V10.6667Z" fill="#455A64"/>
</svg>
