<svg width="32" height="32" viewBox="0 0 32 32" fill="none" xmlns="http://www.w3.org/2000/svg">
<path d="M16.0001 22.6667C17.4146 22.6667 18.7711 22.1048 19.7713 21.1046C20.7715 20.1044 21.3334 18.7478 21.3334 17.3333H10.6667C10.6667 18.7478 11.2287 20.1044 12.2288 21.1046C13.229 22.1048 14.5856 22.6667 16.0001 22.6667ZM13.3334 13.3333C13.3334 13.687 13.1929 14.0261 12.9429 14.2761C12.6928 14.5262 12.3537 14.6667 12.0001 14.6667C11.6465 14.6667 11.3073 14.5262 11.0573 14.2761C10.8072 14.0261 10.6667 13.687 10.6667 13.3333C10.6667 12.9797 10.8072 12.6406 11.0573 12.3905C11.3073 12.1405 11.6465 12 12.0001 12C12.3537 12 12.6928 12.1405 12.9429 12.3905C13.1929 12.6406 13.3334 12.9797 13.3334 13.3333V13.3333ZM20.0001 14.6667C20.3537 14.6667 20.6928 14.5262 20.9429 14.2761C21.1929 14.0261 21.3334 13.687 21.3334 13.3333C21.3334 12.9797 21.1929 12.6406 20.9429 12.3905C20.6928 12.1405 20.3537 12 20.0001 12C19.6465 12 19.3073 12.1405 19.0573 12.3905C18.8072 12.6406 18.6667 12.9797 18.6667 13.3333C18.6667 13.687 18.8072 14.0261 19.0573 14.2761C19.3073 14.5262 19.6465 14.6667 20.0001 14.6667V14.6667Z" fill="#455A64"/>
<path fill-rule="evenodd" clip-rule="evenodd" d="M29.3334 16C29.3334 23.364 23.3641 29.3333 16.0001 29.3333C8.63608 29.3333 2.66675 23.364 2.66675 16C2.66675 8.63601 8.63608 2.66667 16.0001 2.66667C23.3641 2.66667 29.3334 8.63601 29.3334 16ZM26.6667 16C26.6667 18.829 25.5429 21.5421 23.5426 23.5425C21.5422 25.5429 18.8291 26.6667 16.0001 26.6667C13.1711 26.6667 10.458 25.5429 8.45761 23.5425C6.45722 21.5421 5.33341 18.829 5.33341 16C5.33341 13.171 6.45722 10.4579 8.45761 8.45753C10.458 6.45715 13.1711 5.33334 16.0001 5.33334C18.8291 5.33334 21.5422 6.45715 23.5426 8.45753C25.5429 10.4579 26.6667 13.171 26.6667 16V16Z" fill="#455A64"/>
</svg>
