<svg width="32" height="32" viewBox="0 0 32 32" fill="none" xmlns="http://www.w3.org/2000/svg">
<path d="M6 8.5C6 7.04131 6.57946 5.64236 7.61091 4.61091C8.64236 3.57946 10.0413 3 11.5 3C12.9587 3 14.3576 3.57946 15.3891 4.61091C16.4205 5.64236 17 7.04131 17 8.5C17 9.95869 16.4205 11.3576 15.3891 12.3891C14.3576 13.4205 12.9587 14 11.5 14C10.0413 14 8.64236 13.4205 7.61091 12.3891C6.57946 11.3576 6 9.95869 6 8.5V8.5ZM19 11.5C19 10.9091 19.1164 10.3239 19.3425 9.77792C19.5687 9.23196 19.9002 8.73588 20.318 8.31802C20.7359 7.90016 21.232 7.56869 21.7779 7.34254C22.3239 7.1164 22.9091 7 23.5 7C24.0909 7 24.6761 7.1164 25.2221 7.34254C25.768 7.56869 26.2641 7.90016 26.682 8.31802C27.0998 8.73588 27.4313 9.23196 27.6575 9.77792C27.8836 10.3239 28 10.9091 28 11.5C28 12.6935 27.5259 13.8381 26.682 14.682C25.8381 15.5259 24.6935 16 23.5 16C22.3065 16 21.1619 15.5259 20.318 14.682C19.4741 13.8381 19 12.6935 19 11.5V11.5ZM2 25.5C2 22.9804 3.00089 20.5641 4.78249 18.7825C6.56408 17.0009 8.98044 16 11.5 16C14.0196 16 16.4359 17.0009 18.2175 18.7825C19.9991 20.5641 21 22.9804 21 25.5V25.504L20.9987 25.6627C20.9958 25.8322 20.9499 25.9983 20.8653 26.1452C20.7806 26.2922 20.66 26.4152 20.5147 26.5027C17.7936 28.1413 14.6764 29.0049 11.5 29C8.204 29 5.11867 28.088 2.48667 26.5027C2.34113 26.4153 2.22022 26.2924 2.13532 26.1455C2.05041 25.9985 2.0043 25.8324 2.00133 25.6627L2 25.5V25.5ZM23 25.504L22.9987 25.696C22.9912 26.1404 22.8851 26.5776 22.688 26.976C25.0156 27.1196 27.3405 26.6555 29.4347 25.6293C29.5966 25.5502 29.7342 25.4287 29.8327 25.2778C29.9313 25.1269 29.9873 24.9521 29.9947 24.772C30.0417 23.6537 29.7992 22.5421 29.2906 21.545C28.7819 20.5479 28.0244 19.6991 27.0914 19.0807C26.1584 18.4623 25.0815 18.0953 23.965 18.0153C22.8485 17.9353 21.7303 18.145 20.7187 18.624C22.2029 20.6088 23.003 23.0216 22.9987 25.5V25.504H23Z" fill="#455A64"/>
</svg>
